<?xml version="1.0" standalone="no"?>
<!DOCTYPE svg PUBLIC "-//W3C//DTD SVG 20010904//EN"
 "http://www.w3.org/TR/2001/REC-SVG-20010904/DTD/svg10.dtd">
<svg version="1.0" xmlns="http://www.w3.org/2000/svg"
 width="250.000000pt" height="118.000000pt" viewBox="0 0 250.000000 118.000000"
 preserveAspectRatio="xMidYMid meet">

<g transform="translate(0.000000,118.000000) scale(0.100000,-0.100000)"
fill="#000000" stroke="none">
<path d="M421 933 c-58 -21 -125 -90 -145 -150 -71 -207 135 -400 330 -309 28
13 55 29 59 36 5 8 -8 28 -33 52 -39 39 -41 40 -63 24 -30 -21 -93 -21 -125 0
-75 50 -72 182 6 228 36 21 89 21 119 0 22 -16 24 -15 62 22 21 21 39 41 39
46 0 4 -20 19 -45 34 -57 33 -141 40 -204 17z"/>
<path d="M745 820 l-121 -119 121 -121 121 -120 39 40 40 41 -81 79 -81 80 81
80 81 79 -40 40 -40 41 -120 -120z"/>
<path d="M1017 893 l-38 -38 83 -77 83 -77 -83 -78 -84 -78 41 -39 40 -39 58
51 c32 28 87 80 123 116 l65 66 -115 115 c-63 63 -120 115 -125 115 -6 0 -27
-17 -48 -37z"/>
<path d="M1360 700 l0 -230 111 0 c128 0 173 11 224 52 107 89 108 272 0 354
-56 42 -100 53 -222 54 l-113 0 0 -230z m230 114 c55 -33 77 -115 47 -174 -19
-37 -74 -70 -118 -70 l-39 0 0 130 0 130 41 0 c22 0 53 -7 69 -16z"/>
<path d="M1830 700 l0 -230 175 0 175 0 0 50 0 50 -115 0 -115 0 0 40 0 40
110 0 110 0 0 55 0 55 -110 0 -110 0 0 35 0 35 115 0 115 0 0 50 0 50 -175 0
-175 0 0 -230z"/>
<path d="M495 330 c0 -41 3 -50 18 -50 23 0 41 41 33 74 -4 18 -13 26 -29 26
-20 0 -22 -5 -22 -50z m37 -22 c-9 -20 -11 -18 -11 22 0 40 2 42 11 23 8 -17
8 -29 0 -45z"/>
<path d="M680 330 l0 -50 33 1 c30 2 30 2 5 6 -29 5 -40 37 -15 46 10 4 10 6
0 6 -25 2 -13 30 15 34 25 4 25 4 -5 6 l-33 1 0 -50z"/>
<path d="M871 364 c-1 -12 5 -37 13 -55 l15 -34 15 37 c9 21 16 45 15 55 0 11
-4 8 -9 -9 -16 -52 -24 -55 -36 -13 -8 24 -13 32 -13 19z"/>
<path d="M1055 368 c-3 -7 -4 -29 -2 -48 2 -32 5 -35 37 -36 26 -1 28 -1 8 3
-29 5 -40 37 -15 46 10 4 10 6 0 6 -25 2 -13 30 15 34 25 4 24 4 -6 6 -18 0
-35 -5 -37 -11z"/>
<path d="M1242 333 l-2 -53 33 1 c29 1 30 2 7 8 -21 6 -26 15 -31 51 l-6 45
-1 -52z"/>
<path d="M1440 355 c-9 -24 4 -75 20 -75 13 0 30 25 30 46 0 55 -33 74 -50 29z
m33 -47 l-10 -23 -12 23 c-9 17 -9 27 0 44 l12 23 10 -23 c7 -14 7 -30 0 -44z"/>
<path d="M1621 328 c1 -29 4 -43 6 -31 3 13 13 23 26 25 16 2 23 11 25 31 3
24 0 27 -27 27 -31 0 -31 0 -30 -52z m47 25 c-5 -26 -38 -29 -38 -4 0 15 6 21
21 21 14 0 19 -5 17 -17z"/>
<path d="M1810 330 l0 -50 33 1 c30 2 30 2 5 6 -29 5 -40 37 -15 46 10 4 10 6
0 6 -25 2 -13 30 15 34 25 4 25 4 -5 6 l-33 1 0 -50z"/>
<path d="M1997 373 c-11 -10 -8 -83 3 -83 6 0 10 12 10 28 l0 27 21 -32 c25
-40 35 -43 15 -6 -12 24 -12 29 2 39 8 6 12 16 8 22 -8 13 -48 16 -59 5z m43
-13 c0 -5 -7 -10 -15 -10 -8 0 -15 5 -15 10 0 6 7 10 15 10 8 0 15 -4 15 -10z"/>
</g>
</svg>
